<?xml version="1.0" standalone="no"?>
<!DOCTYPE svg PUBLIC "-//W3C//DTD SVG 20010904//EN"
 "http://www.w3.org/TR/2001/REC-SVG-20010904/DTD/svg10.dtd">
<svg version="1.0" xmlns="http://www.w3.org/2000/svg"
 width="410.000000pt" height="410.000000pt" viewBox="0 0 410.000000 410.000000"
 preserveAspectRatio="xMidYMid meet">
<metadata>
Created by potrace 1.11, written by Peter Selinger 2001-2013
</metadata>
<g transform="translate(0.000000,410.000000) scale(0.100000,-0.100000)"
fill="#000000" stroke="none">
<path d="M1050 4050 l0 -50 -50 0 -50 0 0 -100 0 -100 50 0 50 0 0 50 0 50 50
0 50 0 0 100 0 100 -50 0 -50 0 0 -50z"/>
<path d="M1550 4000 l0 -100 -100 0 -100 0 0 -50 0 -50 -50 0 -50 0 0 -100 0
-100 -50 0 -50 0 0 -150 0 -150 50 0 50 0 0 -50 0 -50 50 0 50 0 0 -100 0
-100 50 0 50 0 0 -50 0 -50 50 0 50 0 0 -200 0 -200 50 0 50 0 0 -150 0 -150
-50 0 -50 0 0 50 0 50 -50 0 -50 0 0 200 0 200 -50 0 -50 0 0 100 0 100 -50 0
-50 0 0 50 0 50 -50 0 -50 0 0 50 0 50 -150 0 -150 0 0 -50 0 -50 50 0 50 0 0
-200 0 -200 -50 0 -50 0 0 -100 0 -100 -50 0 -50 0 0 -50 0 -50 -50 0 -50 0 0
-50 0 -50 -50 0 -50 0 0 -550 0 -550 50 0 50 0 0 -150 0 -150 50 0 50 0 0
-100 0 -100 50 0 50 0 0 -50 0 -50 100 0 100 0 0 -50 0 -50 50 0 50 0 0 -50 0
-50 50 0 50 0 0 -50 0 -50 150 0 150 0 0 -50 0 -50 100 0 100 0 0 -50 0 -50
350 0 350 0 0 50 0 50 50 0 50 0 0 50 0 50 100 0 100 0 0 50 0 50 100 0 100 0
0 50 0 50 100 0 100 0 0 50 0 50 50 0 50 0 0 50 0 50 50 0 50 0 0 100 0 100
50 0 50 0 0 50 0 50 50 0 50 0 0 600 0 600 -100 0 -100 0 0 100 0 100 -50 0
-50 0 0 100 0 100 50 0 50 0 0 250 0 250 -50 0 -50 0 0 -50 0 -50 -100 0 -100
0 0 -100 0 -100 -50 0 -50 0 0 -50 0 -50 -50 0 -50 0 0 -100 0 -100 -50 0 -50
0 0 -300 0 -300 -50 0 -50 0 0 100 0 100 -50 0 -50 0 0 300 0 300 -50 0 -50 0
0 100 0 100 -50 0 -50 0 0 100 0 100 -50 0 -50 0 0 50 0 50 -50 0 -50 0 0 50
0 50 -50 0 -50 0 0 50 0 50 -50 0 -50 0 0 50 0 50 -50 0 -50 0 0 50 0 50 -50
0 -50 0 0 50 0 50 -50 0 -50 0 0 100 0 100 50 0 50 0 0 100 0 100 -50 0 -50 0
0 50 0 50 -50 0 -50 0 0 -100z"/>
<path d="M2150 3950 l0 -50 -50 0 -50 0 0 -150 0 -150 50 0 50 0 0 100 0 100
50 0 50 0 0 100 0 100 -50 0 -50 0 0 -50z"/>
<path d="M3050 3250 l0 -150 100 0 100 0 0 150 0 150 -100 0 -100 0 0 -150z"/>
<path d="M2550 3050 l0 -50 -50 0 -50 0 0 -50 0 -50 100 0 100 0 0 100 0 100
-50 0 -50 0 0 -50z"/>
<path d="M650 2950 l0 -50 -50 0 -50 0 0 -50 0 -50 100 0 100 0 0 100 0 100
-50 0 -50 0 0 -50z"/>
</g>
</svg>
